<svg width="16" height="17" viewBox="0 0 16 17" fill="none" xmlns="http://www.w3.org/2000/svg">
<path d="M12.6667 8.31413H8.66675V4.31413C8.66675 4.13732 8.59651 3.96775 8.47149 3.84272C8.34646 3.7177 8.17689 3.64746 8.00008 3.64746C7.82327 3.64746 7.6537 3.7177 7.52868 3.84272C7.40365 3.96775 7.33341 4.13732 7.33341 4.31413V8.31413H3.33341C3.1566 8.31413 2.98703 8.38437 2.86201 8.50939C2.73699 8.63441 2.66675 8.80398 2.66675 8.98079C2.66675 9.15761 2.73699 9.32717 2.86201 9.4522C2.98703 9.57722 3.1566 9.64746 3.33341 9.64746H7.33341V13.6475C7.33341 13.8243 7.40365 13.9938 7.52868 14.1189C7.6537 14.2439 7.82327 14.3141 8.00008 14.3141C8.17689 14.3141 8.34646 14.2439 8.47149 14.1189C8.59651 13.9938 8.66675 13.8243 8.66675 13.6475V9.64746H12.6667C12.8436 9.64746 13.0131 9.57722 13.1382 9.4522C13.2632 9.32717 13.3334 9.15761 13.3334 8.98079C13.3334 8.80398 13.2632 8.63441 13.1382 8.50939C13.0131 8.38437 12.8436 8.31413 12.6667 8.31413Z" fill="#3D160A"/>
</svg>
