<svg width="21" height="20" viewBox="0 0 21 20" fill="none" xmlns="http://www.w3.org/2000/svg">
<path d="M13.7277 1H6.63773C3.62773 1 1.17773 3.44 1.17773 6.44V13.56C1.17773 16.56 3.62773 19 6.63773 19H13.7177C16.7377 19 19.1777 16.56 19.1777 13.56V6.44C19.1877 3.44 16.7377 1 13.7277 1ZM17.6777 14C17.6777 15.93 16.1077 17.5 14.1777 17.5H6.17773C4.24773 17.5 2.67773 15.93 2.67773 14V6C2.67773 4.07 4.24773 2.5 6.17773 2.5H14.1777C16.1077 2.5 17.6777 4.07 17.6777 6V14Z" fill="#3D160A"/>
<path d="M15.0478 6.34992C15.6498 6.34992 16.1378 5.86191 16.1378 5.25992C16.1378 4.65793 15.6498 4.16992 15.0478 4.16992C14.4458 4.16992 13.9578 4.65793 13.9578 5.25992C13.9578 5.86191 14.4458 6.34992 15.0478 6.34992Z" fill="#3D160A"/>
<path d="M10.2076 5.4502C7.65764 5.4502 5.57764 7.5102 5.57764 10.0502C5.57764 12.6002 7.64764 14.6602 10.2076 14.6602C12.7676 14.6602 14.8376 12.5992 14.8376 10.0502C14.8276 7.5102 12.7576 5.4502 10.2076 5.4502ZM10.2576 13.0002C8.59764 13.0002 7.25764 11.6602 7.25764 10.0102C7.25764 8.3602 8.59764 7.0202 10.2576 7.0202C11.9176 7.0202 13.2576 8.3602 13.2576 10.0102C13.2576 11.6602 11.9176 13.0002 10.2576 13.0002Z" fill="#3D160A"/>
</svg>
