<svg width="21" height="20" viewBox="0 0 21 20" fill="none" xmlns="http://www.w3.org/2000/svg">
<path d="M5.94773 17.89V7.17H2.38773V17.89H5.94773ZM4.16773 5.71C5.40773 5.71 6.18773 4.89 6.18773 3.86C6.16773 2.8 5.41773 2 4.19773 2C2.97773 2 2.17773 2.8 2.17773 3.85C2.17773 4.88 2.94773 5.7 4.14773 5.7H4.16773V5.71Z" fill="#3D160A"/>
<path d="M7.92773 17.8899H11.4877V11.8999C11.4877 11.5799 11.5077 11.2599 11.6077 11.0299C11.8677 10.3899 12.4477 9.72992 13.4377 9.72992C14.7277 9.72992 15.2377 10.7099 15.2377 12.1499V17.8899H18.7977V11.7399C18.7977 8.44992 17.0377 6.91992 14.6977 6.91992C12.7777 6.91992 11.9277 7.98992 11.4577 8.72992H11.4777V7.16992H7.92773C7.96773 8.16992 7.92773 17.8899 7.92773 17.8899Z" fill="#3D160A"/>
</svg>
